<svg width="24" height="20" viewBox="0 0 24 20" fill="none" xmlns="http://www.w3.org/2000/svg">
<path d="M16.164 12.4954C16.0495 12.4456 15.9388 12.3922 15.8327 12.3405C15.7858 12.318 15.7398 12.2964 15.6948 12.2748L15.4902 12.1772L15.5409 11.9567C15.8684 10.5472 15.4564 9.52799 14.3828 9.08411C13.8995 8.88515 13.4096 8.86075 12.9273 9.01372C12.2469 9.22863 11.773 9.69692 11.4802 10.4449L11.3741 10.7133L10.9875 10.5509C10.903 10.5162 10.8251 10.4843 10.7482 10.4496C10.5333 10.3548 10.3109 10.3078 10.0931 10.3078C9.78626 10.3078 9.4897 10.3998 9.2382 10.5819C8.81777 10.8869 8.59817 11.3805 8.65072 11.9032C8.69389 12.3227 8.39828 12.4306 8.26877 12.4578C8.24813 12.4625 8.21434 12.4776 8.18056 12.4926L8.15053 12.5057C7.48704 12.7919 7.13043 13.4395 7.26369 14.1152C7.40164 14.8115 7.98067 15.2798 8.70609 15.2807C10.9612 15.2845 13.2848 15.2845 15.6112 15.2807C16.3479 15.2798 16.9363 14.8087 17.0762 14.1095C17.2132 13.4273 16.8547 12.7938 16.164 12.4954V12.4954Z" fill="currentColor"/>
<path d="M22.2526 5.33877C16.0448 5.33877 9.83689 5.33877 3.62901 5.33877H3.09034C3.0528 5.45326 3.0284 5.51051 3.0162 5.56963C2.14063 9.82176 1.26505 14.073 0.392286 18.3251C0.212103 19.2007 0.465486 19.4991 1.37954 19.4991C7.93183 19.4991 14.4832 19.4991 21.0355 19.4991C21.1603 19.4991 21.286 19.5029 21.4108 19.4916C22.1156 19.4297 22.6046 19.0102 22.7378 18.3138C22.8167 17.9009 22.8504 17.4786 22.8964 17.0591C23.2549 13.813 23.6012 10.565 23.9738 7.32078C24.1286 5.97129 23.605 5.33783 22.2526 5.33783V5.33877ZM18.344 14.0823C18.2351 15.2122 17.596 16.0099 16.4952 16.3891C16.2268 16.481 15.9162 16.5289 15.5474 16.5336C15.0331 16.5402 14.5141 16.542 13.9999 16.542C13.6874 16.542 13.3767 16.5411 13.0699 16.5402C12.7621 16.5402 12.4552 16.5383 12.1474 16.5392C11.7945 16.5392 11.4426 16.5402 11.0897 16.5402C10.3014 16.542 9.48591 16.543 8.68353 16.5373C7.92244 16.5317 7.22142 16.2314 6.70996 15.6909C6.20507 15.1578 5.94606 14.454 5.98172 13.7088C6.02583 12.7676 6.48661 12.0215 7.35092 11.4903C7.36594 11.481 7.39034 11.4519 7.39879 11.434C7.48982 10.6673 7.90743 9.97379 8.54745 9.52991C9.18466 9.08883 9.9786 8.94149 10.7247 9.12825C10.7387 9.13106 10.75 9.13388 10.7575 9.13482C10.7631 9.12825 10.7707 9.11886 10.78 9.10572C11.5768 7.96644 12.9666 7.43434 14.3208 7.7506C15.6882 8.07061 16.7054 9.1686 16.9128 10.5472C16.9579 10.8494 16.9447 11.1553 16.926 11.4153C16.9241 11.4406 16.9241 11.4556 16.925 11.4641C16.9316 11.4697 16.9438 11.4791 16.9663 11.4922C17.9742 12.0834 18.451 12.9787 18.344 14.0823Z" fill="currentColor"/>
<path d="M0 12.975C0 12.8258 0 12.6765 0 12.5273C0 8.93211 0 5.33595 0 1.74073C0 0.525434 0.523657 0.00365377 1.74365 0.00177686C2.79096 -0.000100048 3.83828 -0.0010385 4.88559 0.00177686C5.59882 0.00365377 5.81185 0.20636 5.84657 0.901755C5.87848 1.5521 6.10934 1.76326 6.80286 1.76419C10.6796 1.76513 14.5573 1.80267 18.4341 1.74636C19.9975 1.72384 20.524 2.57971 20.3269 3.94422H19.7526C14.1406 3.94422 8.52773 3.94422 2.91578 3.94422C2.05803 3.94422 1.92102 4.04745 1.7474 4.8808C1.19747 7.52443 0.654102 10.1699 0.107922 12.8154C0.0966606 12.8708 0.0853993 12.9271 0.0750763 12.9834L0.000938297 12.9759L0 12.975Z" fill="currentColor"/>
</svg>
