<svg width="22" height="22" viewBox="0 0 22 22" fill="none" xmlns="http://www.w3.org/2000/svg">
<path d="M9.67977 0.0745107C9.18032 0.207408 8.70378 0.546527 8.43801 0.96355C8.21807 1.30267 8.11726 1.61887 8.07602 2.07256C8.03478 2.50791 7.97521 2.63623 7.73236 2.81495C7.53075 2.96618 7.16418 2.94327 6.9534 2.76913C6.44478 2.36127 6.33023 2.28336 6.10112 2.19629C5.53752 1.98549 4.91435 2.0084 4.36907 2.26961C4.07123 2.41168 3.92919 2.52624 3.29685 3.15407C2.89362 3.54818 2.49956 3.97895 2.4125 4.10727C2.17881 4.46013 2.06884 4.83591 2.06884 5.29418C2.06884 5.90368 2.22463 6.29321 2.67826 6.8248C2.98985 7.18683 3.01734 7.49845 2.7699 7.79174C2.60495 7.9888 2.43083 8.0667 2.15131 8.0667C1.60146 8.0667 1.05618 8.30042 0.648373 8.70828C0.359698 8.99699 0.176412 9.30861 0.0756053 9.69355C-0.0252018 10.0785 -0.0252018 11.9207 0.0756053 12.3057C0.323041 13.2451 1.19823 13.9325 2.15131 13.9325C2.43083 13.9325 2.60495 14.0104 2.7699 14.2075C3.02192 14.5054 2.98526 14.817 2.6691 15.1836C2.54996 15.3211 2.40333 15.5044 2.34835 15.596C1.94054 16.2605 1.96345 17.2183 2.4125 17.892C2.49956 18.0203 2.89362 18.4511 3.29685 18.8452C3.94293 19.4822 4.06665 19.5876 4.3874 19.7388C4.74481 19.9083 4.75855 19.9129 5.29925 19.9129C5.83536 19.9129 5.85827 19.9083 6.19276 19.748C6.38063 19.6563 6.65556 19.4776 6.80219 19.3493C7.17792 19.0147 7.49409 18.9781 7.80568 19.2393C7.98438 19.3905 8.07144 19.5967 8.07144 19.8809C8.07144 20.4033 8.31429 20.9624 8.70836 21.3611C8.99703 21.6498 9.30862 21.8239 9.70726 21.9293C10.0188 22.0118 11.8013 22.0255 12.1999 21.9522C13.0751 21.7872 13.79 21.0265 13.8999 20.1329C13.9228 19.9358 13.9549 19.7067 13.9641 19.6242C13.9961 19.4226 14.2253 19.1705 14.4406 19.1064C14.7018 19.0285 14.8988 19.088 15.1783 19.3263C15.7465 19.8121 16.1268 19.9542 16.8004 19.9267C17.2174 19.9129 17.2907 19.8946 17.6252 19.7388C17.9597 19.5784 18.0651 19.4913 18.7799 18.7764C19.4947 18.0615 19.5818 17.9561 19.7422 17.6216C19.8979 17.2871 19.9163 17.2137 19.93 16.7967C19.9575 16.1231 19.8155 15.7427 19.3298 15.1744C19.0182 14.8124 18.9907 14.4962 19.2381 14.2029C19.3985 14.015 19.5772 13.9325 19.8155 13.9325C20.8464 13.9325 21.772 13.181 21.9553 12.1957C22.0149 11.8749 22.0149 10.1243 21.9553 9.80354C21.7766 8.84576 20.8464 8.0667 19.8842 8.0667C19.6001 8.0667 19.3939 7.97963 19.2427 7.80091C18.9861 7.49387 19.0182 7.18225 19.3435 6.81105C19.7788 6.31612 19.9529 5.87618 19.9483 5.27585C19.9483 4.85883 19.82 4.44639 19.5955 4.10727C19.5085 3.97895 19.1144 3.54818 18.7112 3.15407C18.0651 2.51708 17.9414 2.41168 17.6206 2.26045C17.2632 2.09089 17.2495 2.08631 16.7088 2.08631C16.1727 2.08631 16.1498 2.09089 15.8153 2.25128C15.6274 2.34294 15.3662 2.5125 15.2379 2.62706C14.8713 2.95702 14.5827 3.02117 14.3032 2.8287C14.042 2.64998 13.9778 2.52166 13.932 2.08172C13.8816 1.57763 13.7991 1.321 13.5746 0.977299C13.2768 0.519031 12.8506 0.211991 12.3008 0.069928C11.9342 -0.0263082 10.0372 -0.0217256 9.67977 0.0745107ZM12.1037 1.5593C12.3282 1.67387 12.4703 1.9305 12.4703 2.2192C12.4703 2.74163 12.7086 3.3328 13.066 3.70858C13.8816 4.56095 15.1967 4.62053 16.0673 3.83689C16.1956 3.72691 16.3468 3.61234 16.4018 3.58026C16.5392 3.50694 16.8737 3.50694 17.0158 3.58026C17.1532 3.65358 18.1705 4.64802 18.34 4.87716C18.4454 5.01922 18.4729 5.10629 18.4729 5.28043C18.4729 5.55081 18.4317 5.63788 18.1659 5.92659C17.5244 6.61858 17.4373 7.71842 17.9597 8.5433C18.3217 9.12072 19.0777 9.53316 19.7834 9.53316C20.0721 9.53316 20.3287 9.67522 20.4432 9.89978C20.5257 10.0602 20.5349 10.1656 20.5349 10.9996C20.5349 11.8337 20.5257 11.9391 20.4432 12.0995C20.3287 12.324 20.0721 12.4661 19.7834 12.4661C19.0777 12.4661 18.3217 12.8785 17.9597 13.4559C17.4373 14.2854 17.5244 15.3807 18.1705 16.0818C18.4317 16.3614 18.4729 16.4484 18.4729 16.7142C18.4729 16.9938 18.4362 17.0442 17.8131 17.6857C17.1349 18.3777 17.0066 18.4694 16.7225 18.4694C16.4522 18.4694 16.3651 18.4281 16.0856 18.1669C15.3845 17.5208 14.2894 17.4337 13.46 17.9561C12.8827 18.3182 12.4703 19.0743 12.4703 19.78C12.4703 20.0687 12.3282 20.3254 12.1037 20.4399C11.9433 20.5224 11.838 20.5316 11.004 20.5316C10.1701 20.5316 10.0647 20.5224 9.9043 20.4399C9.67519 20.3254 9.53772 20.0687 9.53772 19.7663C9.53772 19.6471 9.50565 19.4134 9.46899 19.253C9.19865 18.1074 7.99354 17.3741 6.86634 17.6674C6.50435 17.7637 6.17443 17.9378 5.92242 18.1669C5.64291 18.4281 5.55584 18.4694 5.2855 18.4694C5.00141 18.4694 4.87311 18.3777 4.19495 17.6857C3.57178 17.0442 3.53512 16.9938 3.53512 16.7142C3.53512 16.4484 3.57636 16.3614 3.84212 16.0726C4.09414 15.8023 4.29117 15.3898 4.36449 14.9774C4.5936 13.6942 3.54429 12.4661 2.22463 12.4661C1.93595 12.4661 1.67935 12.324 1.5648 12.0995C1.48232 11.9391 1.47316 11.8337 1.47316 10.995C1.47316 10.2389 1.4869 10.0464 1.54647 9.91811C1.67019 9.66148 1.84431 9.56982 2.29336 9.52858C3.07232 9.45526 3.59927 9.17571 3.98417 8.62121C4.57527 7.77341 4.5157 6.65066 3.83754 5.91743C3.57636 5.63788 3.53512 5.55081 3.53512 5.28043C3.53512 5.10629 3.56261 5.01922 3.668 4.87716C3.83754 4.64802 4.85478 3.65358 4.99224 3.58026C5.13429 3.50694 5.46878 3.50694 5.60625 3.58026C5.66123 3.60776 5.80786 3.72691 5.93158 3.83689C6.37605 4.24933 7.06337 4.46013 7.66821 4.3639C8.07602 4.30432 8.58922 4.05686 8.86415 3.78648C9.27654 3.38779 9.47357 2.94785 9.53314 2.29253C9.57438 1.83884 9.66144 1.66928 9.91346 1.54555C10.0372 1.48139 10.2342 1.46765 10.9948 1.46765C11.838 1.46765 11.9388 1.47681 12.1037 1.5593Z" fill="currentColor"/>
<path d="M10.1792 5.93575C8.91457 6.13739 7.69572 6.87062 6.92134 7.89255C4.64859 10.9125 6.26609 15.2157 9.97304 16.0222C10.7795 16.1964 11.7784 16.1414 12.6032 15.871C13.3959 15.6144 14.294 15.0278 14.8209 14.4229C16.5713 12.4157 16.5713 9.58356 14.8209 7.57635C14.4315 7.12725 13.8862 6.71939 13.2722 6.41693C12.2733 5.922 11.2606 5.76619 10.1792 5.93575ZM11.8746 7.43887C12.8277 7.70008 13.5609 8.22251 14.0741 9.01073C15.0088 10.4405 14.8118 12.3469 13.6067 13.5659C11.9571 15.234 9.21699 14.9545 7.93399 12.9839C7.52618 12.3607 7.36122 11.797 7.36122 10.9996C7.36122 10.2022 7.52618 9.63855 7.92941 9.01989C8.47468 8.18584 9.32238 7.60843 10.3167 7.39762C10.6833 7.31972 11.5172 7.34263 11.8746 7.43887Z" fill="currentColor"/>
</svg>
