<svg width="24" height="23" viewBox="0 0 24 23" fill="none" xmlns="http://www.w3.org/2000/svg">
<path d="M11.6134 0.0552569C11.3224 0.163123 11.1065 0.322577 10.9656 0.52424C10.8952 0.632106 10.2146 2.17037 9.45881 3.94313C8.0928 7.14159 8.08341 7.16973 7.93789 7.19318C7.85809 7.20256 6.25267 7.35263 4.3656 7.52147C0.690047 7.85444 0.732295 7.84506 0.394313 8.14521C0.126743 8.3797 0 8.67985 0 9.09256C0.0046942 9.52402 0.0891898 9.71162 0.478808 10.0821C0.629023 10.2275 1.79788 11.2593 3.0747 12.3754C4.35152 13.4916 5.45466 14.4577 5.52507 14.5281L5.65651 14.65L4.87727 18.0501C4.06048 21.6097 4.02293 21.8395 4.17314 22.1959C4.41255 22.7728 5.00402 23.0964 5.5861 22.9745C5.85836 22.9182 5.98041 22.8478 9.52922 20.728C10.792 19.973 11.8716 19.3305 11.9233 19.307C12.0031 19.2695 12.5053 19.5556 14.9745 21.0329C16.6034 22.0037 18.0257 22.8431 18.1384 22.8947C18.2745 22.9557 18.4482 22.9838 18.6454 22.9838C19.3542 22.9885 19.9034 22.4351 19.894 21.7317C19.8893 21.5487 19.6171 20.2731 19.1101 18.0501L18.3308 14.65L18.6219 14.3874C18.7862 14.242 19.9832 13.1915 21.2882 12.0472C22.5932 10.9075 23.7151 9.88983 23.7902 9.78196C24.2361 9.1207 23.9404 8.18273 23.194 7.89665C23.0626 7.84506 21.8656 7.71844 19.4668 7.50271C17.5234 7.32449 15.9227 7.16973 15.9133 7.16035C15.9039 7.15097 15.2749 5.69712 14.5238 3.93375C13.7681 2.16568 13.0874 0.627416 13.0076 0.51486C12.7166 0.106845 12.0594 -0.108887 11.6134 0.0552569ZM13.3268 4.95613C14.0403 6.6304 14.6788 8.07018 14.7398 8.15928C14.8806 8.34688 15.1857 8.55792 15.397 8.61889C15.4815 8.64234 17.0306 8.79241 18.8425 8.95655C20.6498 9.1207 22.1331 9.27077 22.1331 9.28484C22.1331 9.29891 21.0488 10.2603 19.7297 11.4187C18.406 12.5724 17.2512 13.5948 17.162 13.6886C16.932 13.9231 16.8287 14.1763 16.8287 14.5187C16.8287 14.7297 17.0306 15.7005 17.5563 18.0126C17.9553 19.7713 18.2745 21.2158 18.2698 21.2251C18.2604 21.2345 16.9977 20.4888 15.4627 19.5696C13.9277 18.6504 12.5758 17.8579 12.449 17.811C12.1861 17.7078 11.8435 17.6984 11.59 17.7875C11.4867 17.8203 10.1301 18.6129 8.57161 19.5462C7.01313 20.4795 5.72692 21.2345 5.72223 21.2251C5.71284 21.2158 6.03204 19.7666 6.43105 18.0079C6.95211 15.7146 7.15865 14.725 7.15865 14.5187C7.15865 14.167 7.04599 13.9043 6.7972 13.6558C6.69862 13.5573 5.54385 12.5396 4.23417 11.3953C2.92449 10.2463 1.85421 9.29891 1.85421 9.28015C1.85421 9.26608 3.33757 9.1207 5.14484 8.95655C6.9568 8.79241 8.50589 8.64234 8.59038 8.61889C8.80162 8.55792 9.10674 8.34688 9.24288 8.15928C9.3039 8.07487 9.94231 6.63509 10.6605 4.96082C11.374 3.28655 11.9749 1.91712 11.9937 1.91712C12.0125 1.91712 12.6086 3.28655 13.3268 4.95613Z" fill="currentColor"/>
</svg>
