<svg width="20" height="23" viewBox="0 0 20 23" fill="none" xmlns="http://www.w3.org/2000/svg">
<path d="M15.5528 0.0641936C14.7974 0.203461 14.1679 0.544892 13.5924 1.11544C13.1473 1.5602 12.8415 2.0409 12.6751 2.56652C12.4099 3.40662 12.4099 3.93225 12.6841 5.05537C12.7021 5.13175 12.3064 5.39231 9.6581 7.03208C7.98547 8.06535 6.59611 8.91893 6.57812 8.92792C6.56014 8.9369 6.38478 8.81111 6.19144 8.64938C5.77778 8.29897 5.17527 7.98449 4.67168 7.84971C4.19057 7.72392 3.33178 7.71494 2.87315 7.83174C1.73558 8.12825 0.755382 8.93241 0.30575 9.95221C0.0719412 10.4868 0 10.8462 0 11.4976C0 12.149 0.0719412 12.5084 0.30575 13.0431C0.750886 14.0404 1.7131 14.849 2.8102 15.1411C3.32728 15.2803 4.15011 15.2803 4.67168 15.1456C5.17527 15.0108 5.77778 14.6963 6.19144 14.3459C6.38478 14.1842 6.56014 14.0584 6.57812 14.0673C6.59611 14.0763 7.98547 14.9299 9.6581 15.9632C12.3064 17.603 12.7021 17.8635 12.6841 17.9399C12.4099 19.0675 12.4099 19.6201 12.6796 20.4377C12.864 20.9858 13.1248 21.4036 13.5744 21.8574C14.1814 22.4728 14.8424 22.8188 15.6742 22.9535C17.5581 23.259 19.4061 22.0281 19.8962 20.1457C20.1031 19.355 19.9952 18.3397 19.622 17.585C18.9745 16.2732 17.6751 15.478 16.2048 15.487C15.2335 15.4915 14.4107 15.8149 13.6823 16.4753L13.4395 16.6955L11.7759 15.6622C10.8631 15.0961 9.47376 14.2381 8.69589 13.7574C7.91803 13.2722 7.27505 12.8768 7.27056 12.8723C7.26606 12.8678 7.29753 12.7376 7.34699 12.5803C7.54933 11.902 7.54933 11.0933 7.34699 10.4149C7.29753 10.2577 7.26606 10.1274 7.27056 10.1229C7.27505 10.1184 7.91803 9.72309 8.69589 9.2379C9.47376 8.7572 10.8631 7.89913 11.7759 7.33308L13.4395 6.2998L13.7183 6.55138C14.8648 7.57567 16.5195 7.80928 17.8909 7.1399C18.8801 6.65471 19.6399 5.71128 19.8962 4.64655C20.0311 4.10296 20.0311 3.3572 19.8962 2.84955C19.3926 0.917771 17.4952 -0.2997 15.5528 0.0641936ZM16.8837 1.46136C18.1157 1.82526 18.8576 3.06968 18.5653 4.30063C18.4619 4.73191 18.2506 5.10479 17.9179 5.43724C17.4098 5.94489 16.7848 6.18299 16.0923 6.13807C15.4674 6.09314 14.9728 5.86852 14.5411 5.42825C13.5969 4.47135 13.6463 2.88998 14.6445 1.99148C14.9008 1.76236 15.2021 1.59614 15.5753 1.47484C15.899 1.37151 16.551 1.36253 16.8837 1.46136ZM4.5278 9.24239C5.21574 9.48948 5.76429 10.0421 6.00259 10.7339C6.15097 11.1472 6.15097 11.848 6.00259 12.2614C5.75979 12.9487 5.21124 13.5103 4.53679 13.7484C4.1591 13.8832 3.5476 13.9101 3.16541 13.8113C2.09079 13.5327 1.36688 12.6028 1.36688 11.5021C1.36688 10.4149 2.04583 9.51194 3.09797 9.19747C3.46667 9.08965 4.1591 9.11211 4.5278 9.24239ZM16.7803 16.9111C17.6481 17.1178 18.3585 17.8231 18.5653 18.6901C18.8576 19.9256 18.1202 21.17 16.8837 21.5339C16.5645 21.6282 15.935 21.6282 15.6157 21.5339C14.7839 21.2868 14.1859 20.6893 13.9386 19.8582C13.8487 19.5482 13.8442 18.9642 13.9341 18.6183C14.1634 17.7422 14.9503 17.0234 15.845 16.8752C16.0968 16.8347 16.515 16.8482 16.7803 16.9111Z" fill="currentColor"/>
</svg>
