<svg width="20" height="22" viewBox="0 0 20 22" fill="none" xmlns="http://www.w3.org/2000/svg">
<path d="M7.45469 0.0708669C7.2668 0.162082 7.04844 0.403533 6.97734 0.602059C6.84531 0.961553 6.96719 1.55177 7.21602 1.78249C7.46484 2.01857 7.60195 2.0293 9.89727 2.03467C12.1773 2.03467 12.2789 2.02394 12.5734 1.79858C12.873 1.5625 13 1.00984 12.8375 0.602059C12.7309 0.33378 12.6242 0.215738 12.3805 0.0976948C12.1926 0.00648002 12.0047 -0.00425114 9.89219 0.00111444C8.09453 0.00111444 7.57656 0.0172112 7.45469 0.0708669Z" fill="currentColor"/>
<path d="M0.497656 3.24731C0.137109 3.44584 0 3.69802 0 4.15409C0 4.82479 0.396094 5.20038 1.11719 5.20038H1.37617L1.41172 5.53305C1.42695 5.72084 1.65547 8.85434 1.91953 12.4976C2.18359 16.1408 2.41211 19.2421 2.43242 19.3923C2.51875 20.0952 2.86406 20.8142 3.33125 21.2756C3.6918 21.6298 4.02695 21.8176 4.47891 21.9195C4.97656 22.0268 14.8586 22.0268 15.3563 21.9195C15.9961 21.7746 16.5547 21.3561 16.9355 20.7391C17.1438 20.4011 17.352 19.7787 17.4027 19.3387C17.423 19.1884 17.6516 16.0871 17.9156 12.4439C18.1797 8.80068 18.4082 5.67792 18.4285 5.50622L18.459 5.20038H18.718C19.4441 5.20038 19.8352 4.82479 19.8402 4.138C19.8402 3.85362 19.8148 3.77314 19.6879 3.58534C19.6066 3.46193 19.4594 3.31706 19.3629 3.26341C19.1953 3.16683 18.8449 3.16146 9.91758 3.16146C1.61484 3.16146 0.634766 3.17219 0.497656 3.24731ZM16.4938 5.45256C16.4785 5.59743 16.25 8.71483 15.9809 12.3903C15.7168 16.0657 15.4832 19.1294 15.468 19.2045C15.4172 19.4406 15.2547 19.725 15.1176 19.843C14.9805 19.9557 14.9805 19.9557 9.91758 19.9557C4.85469 19.9557 4.85469 19.9557 4.71758 19.843C4.58047 19.725 4.41797 19.4406 4.36719 19.2045C4.35195 19.1294 4.11836 16.0657 3.8543 12.3903C3.58516 8.71483 3.35664 5.59743 3.34141 5.45256L3.31094 5.20038H9.91758H16.5242L16.4938 5.45256Z" fill="currentColor"/>
</svg>
